<?xml version="1.0" encoding="UTF-8"?>
<svg id="Capa_2" data-name="Capa 2" xmlns="http://www.w3.org/2000/svg" viewBox="0 0 159.51 159.5">
  <defs>
    <style>
      .cls-1 {
        fill: #debd69;
      }

      .cls-1, .cls-2 {
        stroke-width: 0px;
      }

      .cls-2 {
        fill: #c09529;
      }
    </style>
  </defs>
  <g id="OBJECT">
    <g>
      <rect class="cls-1" x="16.53" y="67.25" width="1.64" height="23.63"/>
      <rect class="cls-1" x="67.25" y="141.33" width="25" height="1.64"/>
      <rect class="cls-1" x="141.33" y="67.25" width="1.64" height="25.01"/>
      <rect class="cls-1" x="67.25" y="16.53" width="25.01" height="1.64"/>
      <rect class="cls-2" x="70.52" y="135.19" width="18.46" height=".33"/>
      <polygon class="cls-2" points="126.65 135.52 126.65 135.19 135.19 135.19 135.19 126.67 135.52 126.67 135.52 135.52 126.65 135.52"/>
      <rect class="cls-2" x="135.19" y="70.53" width=".33" height="18.45"/>
      <polygon class="cls-2" points="126.66 24.31 126.66 23.99 135.52 23.99 135.52 24.15 135.52 32.84 135.2 32.84 135.19 24.32 126.66 24.31"/>
      <rect class="cls-2" x="70.53" y="23.99" width="18.45" height=".33"/>
      <polygon class="cls-2" points="23.99 32.8 23.99 23.98 32.84 23.98 32.84 24.31 24.32 24.31 24.32 32.8 23.99 32.8"/>
      <rect class="cls-2" x="23.99" y="70.52" width=".33" height="18.45"/>
      <polygon class="cls-2" points="23.98 135.52 23.98 126.65 24.31 126.65 24.31 135.19 32.85 135.19 32.85 135.52 23.98 135.52"/>
      <g>
        <g>
          <path class="cls-1" d="M84.01,75.62l-.06-1.64c-.46-11.76,8.65-20.32,16.68-27.88,2.79-2.63,5.43-5.11,7.66-7.65,7.88-9,.05-26.88-2.59-32.26-3.66,2.48-13.13,9.78-15.69,20.33-1.65,6.76-.18,13.77,4.36,20.83l.89,1.38-2.76,1.78-.89-1.38c-5.05-7.85-6.66-15.72-4.78-23.4,3.53-14.47,18.08-22.95,18.7-23.31.38-.22.83-.28,1.26-.16.42.12.78.4.99.78.57,1.02,13.78,25.24,2.99,37.57-2.34,2.67-5.03,5.2-7.88,7.88-7.89,7.42-16.06,15.09-15.65,25.36l.06,1.64-3.28.13Z"/>
          <path class="cls-1" d="M83.89,75.49l.13-3.28,1.64.06c10.27.41,17.94-7.76,25.36-15.65,2.68-2.85,5.22-5.55,7.88-7.88,12.33-10.79,36.55,2.43,37.57,2.99.39.21.67.57.78.99.12.43.06.88-.16,1.26-.35.62-8.84,15.17-23.31,18.7-7.68,1.87-15.55.26-23.4-4.79l-1.38-.89,1.78-2.76,1.38.89c7.06,4.54,14.06,6.01,20.83,4.36,10.54-2.56,17.84-12.04,20.33-15.69-5.38-2.64-23.27-10.46-32.26-2.6-2.55,2.23-5.03,4.87-7.65,7.66-7.55,8.03-16.12,17.14-27.88,16.68l-1.64-.06Z"/>
          <path class="cls-2" d="M108.41,51.1l3.11-5.36c.73-1.25,17.89-30.73,25.49-38.62C145.02-1.19,157.43.05,157.95.1l1.31.14.14,1.31c.06.52,1.3,12.94-7.02,20.95-7.89,7.59-37.37,24.76-38.62,25.48l-5.36,3.11ZM156.21,3.3c-3.24-.05-11.4.45-16.84,6.1-5.39,5.6-16.31,23.38-21.76,32.49,9.11-5.45,26.9-16.37,32.5-21.76,5.65-5.44,6.15-13.6,6.1-16.84Z"/>
          <path class="cls-2" d="M101.69,15c2.84,3.13,4.86,7.04,5.69,11.22.4,2.1.31,4.27-.12,6.34-.36,2.12-1.41,4.01-2.52,5.8,1-1.85,1.97-3.76,2.31-5.84.39-2.05.44-4.19.01-6.24-.71-4.14-2.75-7.98-5.37-11.27Z"/>
          <path class="cls-2" d="M144.52,57.83c-3.3-2.62-7.13-4.66-11.27-5.37-2.05-.43-4.19-.38-6.24.01-2.09.34-3.99,1.31-5.84,2.3,1.78-1.11,3.68-2.16,5.8-2.52,2.07-.43,4.25-.53,6.34-.12,4.18.83,8.09,2.85,11.22,5.69Z"/>
        </g>
        <g>
          <path class="cls-1" d="M2.67,107.5c-.2-.2-.34-.44-.42-.72-.12-.42-.06-.88.16-1.26.35-.62,8.84-15.17,23.31-18.7,7.68-1.87,15.55-.26,23.4,4.79l1.38.89-1.78,2.76-1.38-.89c-7.06-4.54-14.06-6.01-20.83-4.36-10.54,2.56-17.84,12.04-20.33,15.69,5.38,2.64,23.27,10.46,32.26,2.59,2.55-2.23,5.03-4.87,7.65-7.66,7.55-8.03,16.12-17.14,27.88-16.68l1.64.06-.13,3.28-1.64-.06c-10.27-.41-17.94,7.76-25.36,15.65-2.68,2.85-5.22,5.55-7.88,7.88-12.33,10.79-36.55-2.43-37.57-2.99-.13-.07-.26-.17-.36-.27Z"/>
          <path class="cls-1" d="M52,156.83c-.11-.11-.2-.23-.27-.36-.57-1.02-13.78-25.24-2.99-37.57,2.34-2.67,5.03-5.2,7.88-7.88,7.89-7.42,16.06-15.09,15.65-25.36l-.06-1.64,3.28-.13.06,1.64c.46,11.76-8.65,20.32-16.68,27.88-2.79,2.63-5.43,5.11-7.66,7.65-7.88,9-.05,26.88,2.59,32.26,3.66-2.48,13.13-9.78,15.69-20.33,1.65-6.76.18-13.77-4.36-20.83l-.89-1.38,2.76-1.78.89,1.38c5.05,7.85,6.66,15.72,4.78,23.4-3.53,14.47-18.08,22.96-18.7,23.31-.38.22-.83.28-1.26.16-.27-.07-.52-.22-.72-.42Z"/>
          <path class="cls-2" d="M.24,159.26l-.14-1.31c-.06-.52-1.3-12.94,7.02-20.95,7.89-7.59,37.37-24.76,38.62-25.48l5.36-3.11-3.11,5.36c-.73,1.25-17.89,30.73-25.48,38.62-8.01,8.32-20.42,7.08-20.95,7.02l-1.31-.14ZM41.89,117.61c-9.11,5.45-26.9,16.37-32.5,21.76-5.65,5.44-6.14,13.6-6.1,16.84,3.24.05,11.4-.45,16.84-6.1,5.39-5.6,16.31-23.38,21.76-32.49Z"/>
          <path class="cls-2" d="M15,101.68c3.3,2.62,7.13,4.66,11.27,5.37,2.05.43,4.19.38,6.24-.01,2.09-.34,3.99-1.31,5.84-2.3-1.78,1.11-3.68,2.16-5.8,2.52-2.07.43-4.25.53-6.34.12-4.18-.83-8.09-2.85-11.22-5.69Z"/>
          <path class="cls-2" d="M57.83,144.52c-2.84-3.13-4.86-7.04-5.69-11.22-.4-2.1-.31-4.27.12-6.34.36-2.12,1.41-4.01,2.52-5.8-1,1.85-1.97,3.76-2.31,5.84-.39,2.05-.44,4.19-.01,6.24.71,4.14,2.75,7.98,5.37,11.27Z"/>
        </g>
        <g>
          <path class="cls-1" d="M9.52,63c-4.45-4.45-6.92-8.69-7.11-9.02-.22-.38-.28-.83-.16-1.26.12-.42.4-.78.79-.99,1.03-.57,25.24-13.78,37.57-2.99,2.67,2.34,5.2,5.04,7.89,7.89,7.42,7.89,15.09,16.05,25.35,15.65l1.64-.06.13,3.28-1.64.06c-11.76.46-20.32-8.65-27.88-16.68-2.62-2.79-5.1-5.43-7.66-7.66-9-7.88-26.88-.05-32.26,2.59,2.48,3.66,9.78,13.13,20.33,15.69,6.77,1.64,13.77.18,20.83-4.36l1.38-.89,1.78,2.76-1.38.89c-7.85,5.05-15.72,6.66-23.4,4.79-6.79-1.66-12.27-5.74-16.2-9.68Z"/>
          <path class="cls-1" d="M72.21,75.49l.06-1.64c.4-10.27-7.76-17.95-15.65-25.36-2.86-2.69-5.55-5.22-7.88-7.89-10.79-12.33,2.43-36.54,2.99-37.57.21-.38.57-.67.99-.79.42-.12.88-.06,1.26.16.62.35,15.17,8.84,18.7,23.31,1.87,7.68.26,15.55-4.79,23.4l-.89,1.38-2.76-1.78.89-1.38c4.54-7.06,6.01-14.06,4.36-20.83-2.56-10.55-12.04-17.84-15.69-20.33-2.64,5.38-10.46,23.27-2.59,32.26,2.23,2.55,4.87,5.03,7.66,7.66,8.05,7.56,17.14,16.12,16.68,27.88l-.06,1.64-3.28-.13Z"/>
          <path class="cls-2" d="M6.85,22.23C-1.17,14.21.05,2.07.1,1.55L.25.24,1.56.1c.52-.06,12.66-1.27,20.68,6.75.09.09.18.18.27.27,7.59,7.89,24.75,37.37,25.48,38.62l3.11,5.35-5.35-3.11c-1.25-.73-30.73-17.89-38.62-25.48-.09-.09-.19-.18-.27-.27ZM3.3,3.3c-.05,3.19.44,11.18,5.87,16.62.07.07.15.15.22.22,5.6,5.39,23.38,16.31,32.49,21.76-5.45-9.11-16.36-26.9-21.76-32.5-.07-.07-.15-.15-.22-.22C14.49,3.74,6.5,3.25,3.3,3.3Z"/>
          <path class="cls-2" d="M15,57.82c3.13-2.84,7.04-4.86,11.22-5.69,2.1-.4,4.27-.31,6.34.12,2.12.36,4.01,1.41,5.8,2.52-1.85-1-3.76-1.97-5.84-2.31-2.05-.39-4.19-.44-6.24-.01-4.14.71-7.98,2.75-11.27,5.37Z"/>
          <path class="cls-2" d="M57.84,14.99c-2.62,3.3-4.66,7.13-5.37,11.27-.43,2.05-.38,4.19.01,6.24.34,2.09,1.31,3.99,2.3,5.84-1.11-1.78-2.16-3.68-2.52-5.8-.43-2.07-.53-4.25-.12-6.34.83-4.18,2.85-8.09,5.69-11.22Z"/>
        </g>
        <g>
          <path class="cls-1" d="M96.5,149.99c-3.93-3.93-8.02-9.41-9.68-16.2-1.87-7.68-.26-15.55,4.79-23.4l.89-1.38,2.76,1.78-.89,1.38c-4.54,7.06-6.01,14.06-4.36,20.83,2.57,10.55,12.04,17.85,15.69,20.33,2.64-5.38,10.46-23.27,2.59-32.26-2.24-2.56-4.87-5.03-7.66-7.66-8.03-7.56-17.14-16.11-16.68-27.88l.06-1.64,3.28.13-.06,1.64c-.4,10.27,7.76,17.94,15.65,25.35,2.86,2.69,5.55,5.22,7.89,7.89,10.79,12.33-2.43,36.54-2.99,37.57-.21.38-.57.67-.99.79s-.88.06-1.26-.16c-.33-.19-4.58-2.67-9.02-7.11Z"/>
          <path class="cls-1" d="M84.01,87.29l-.13-3.28,1.64-.06c11.76-.46,20.34,8.65,27.88,16.68,2.63,2.79,5.1,5.43,7.65,7.66,9,7.88,26.88.05,32.26-2.59-2.48-3.66-9.78-13.13-20.32-15.69-6.77-1.65-13.77-.18-20.83,4.36l-1.38.89-1.78-2.76,1.38-.89c7.85-5.05,15.72-6.66,23.4-4.79,14.47,3.53,22.95,18.08,23.31,18.7.22.38.28.83.16,1.26-.12.42-.4.78-.79.99-1.03.57-25.24,13.78-37.57,2.99-2.66-2.33-5.2-5.03-7.88-7.89-7.41-7.89-15.09-16.06-25.36-15.65l-1.64.06Z"/>
          <path class="cls-2" d="M137.27,152.66c-.09-.09-.18-.18-.27-.27-7.59-7.89-24.75-37.37-25.48-38.62l-3.11-5.36,5.35,3.11c1.25.73,30.73,17.89,38.62,25.48,8.41,8.1,7.08,20.42,7.02,20.95l-.14,1.31-1.31.14c-.52.06-12.66,1.27-20.68-6.75ZM117.61,117.61c5.45,9.11,16.36,26.9,21.76,32.5.07.07.15.15.22.22,5.43,5.43,13.42,5.92,16.62,5.87.05-3.19-.44-11.18-5.87-16.62-.07-.07-.15-.15-.22-.22-5.6-5.39-23.38-16.31-32.49-21.76Z"/>
          <path class="cls-2" d="M101.68,144.51c2.62-3.3,4.66-7.13,5.37-11.27.43-2.05.38-4.19-.01-6.24-.34-2.09-1.31-3.99-2.3-5.84,1.11,1.78,2.16,3.68,2.52,5.8.43,2.07.53,4.25.12,6.34-.83,4.18-2.85,8.09-5.69,11.22Z"/>
          <path class="cls-2" d="M144.52,101.67c-3.13,2.84-7.04,4.86-11.22,5.69-2.1.4-4.27.31-6.34-.12-2.12-.36-4.01-1.41-5.8-2.52,1.85,1,3.76,1.97,5.84,2.31,2.05.39,4.19.44,6.24.01,4.14-.71,7.98-2.75,11.27-5.37Z"/>
        </g>
      </g>
    </g>
  </g>
</svg>